<mxfile host="app.diagrams.net" modified="2023-05-10T23:08:52.579Z" agent="Mozilla/5.0 (Windows NT 10.0; Win64; x64; rv:109.0) Gecko/20100101 Firefox/113.0" etag="2gm3ys_xsw_BBxNFS1BT" version="21.2.9" type="device">
  <diagram name="Page-1" id="mf9uTeo_KXJyl0Xefn4H">
    <mxGraphModel dx="1700" dy="1600" grid="1" gridSize="10" guides="1" tooltips="1" connect="1" arrows="1" fold="1" page="1" pageScale="1" pageWidth="850" pageHeight="1100" math="0" shadow="0">
      <root>
        <mxCell id="0" />
        <mxCell id="1" parent="0" />
        <mxCell id="gWMrlw6gH3RxY7C6o_Ru-1" value="USUARIO" style="whiteSpace=wrap;html=1;align=center;fontSize=20;fontStyle=1" vertex="1" parent="1">
          <mxGeometry x="270" y="20" width="200" height="90" as="geometry" />
        </mxCell>
        <mxCell id="gWMrlw6gH3RxY7C6o_Ru-3" value="HABILIDAD" style="whiteSpace=wrap;html=1;align=center;fontSize=20;fontStyle=1" vertex="1" parent="1">
          <mxGeometry x="760" y="20" width="200" height="90" as="geometry" />
        </mxCell>
        <mxCell id="gWMrlw6gH3RxY7C6o_Ru-5" value="" style="endArrow=none;html=1;rounded=0;" edge="1" parent="1" source="gWMrlw6gH3RxY7C6o_Ru-6" target="gWMrlw6gH3RxY7C6o_Ru-3">
          <mxGeometry width="50" height="50" relative="1" as="geometry">
            <mxPoint x="530" y="230" as="sourcePoint" />
            <mxPoint x="650" y="180" as="targetPoint" />
          </mxGeometry>
        </mxCell>
        <mxCell id="gWMrlw6gH3RxY7C6o_Ru-6" value="tiene" style="shape=rhombus;perimeter=rhombusPerimeter;whiteSpace=wrap;html=1;align=center;" vertex="1" parent="1">
          <mxGeometry x="560" y="35" width="120" height="60" as="geometry" />
        </mxCell>
        <mxCell id="gWMrlw6gH3RxY7C6o_Ru-15" value="0..N" style="text;html=1;align=center;verticalAlign=middle;resizable=0;points=[];autosize=1;strokeColor=none;fillColor=none;" vertex="1" parent="1">
          <mxGeometry x="472" y="36" width="50" height="30" as="geometry" />
        </mxCell>
        <mxCell id="gWMrlw6gH3RxY7C6o_Ru-16" value="0..N" style="text;html=1;align=center;verticalAlign=middle;resizable=0;points=[];autosize=1;strokeColor=none;fillColor=none;" vertex="1" parent="1">
          <mxGeometry x="709" y="35" width="50" height="30" as="geometry" />
        </mxCell>
        <mxCell id="gWMrlw6gH3RxY7C6o_Ru-21" value="tiene" style="shape=rhombus;double=1;perimeter=rhombusPerimeter;whiteSpace=wrap;html=1;align=center;" vertex="1" parent="1">
          <mxGeometry x="310" y="170" width="120" height="60" as="geometry" />
        </mxCell>
        <mxCell id="gWMrlw6gH3RxY7C6o_Ru-23" value="NECESIDAD" style="shape=ext;margin=3;double=1;whiteSpace=wrap;html=1;align=center;fontSize=20;fontStyle=1" vertex="1" parent="1">
          <mxGeometry x="270" y="279" width="200" height="90" as="geometry" />
        </mxCell>
        <mxCell id="gWMrlw6gH3RxY7C6o_Ru-24" value="" style="endArrow=none;html=1;rounded=0;" edge="1" parent="1" source="gWMrlw6gH3RxY7C6o_Ru-21" target="gWMrlw6gH3RxY7C6o_Ru-1">
          <mxGeometry width="50" height="50" relative="1" as="geometry">
            <mxPoint x="570" y="75" as="sourcePoint" />
            <mxPoint x="480" y="75" as="targetPoint" />
          </mxGeometry>
        </mxCell>
        <mxCell id="gWMrlw6gH3RxY7C6o_Ru-26" value="" style="endArrow=none;html=1;rounded=0;" edge="1" parent="1" source="gWMrlw6gH3RxY7C6o_Ru-23" target="gWMrlw6gH3RxY7C6o_Ru-21">
          <mxGeometry width="50" height="50" relative="1" as="geometry">
            <mxPoint x="380" y="180" as="sourcePoint" />
            <mxPoint x="370" y="200" as="targetPoint" />
          </mxGeometry>
        </mxCell>
        <mxCell id="gWMrlw6gH3RxY7C6o_Ru-27" value="1" style="text;html=1;align=center;verticalAlign=middle;resizable=0;points=[];autosize=1;strokeColor=none;fillColor=none;" vertex="1" parent="1">
          <mxGeometry x="342" y="112" width="30" height="30" as="geometry" />
        </mxCell>
        <mxCell id="gWMrlw6gH3RxY7C6o_Ru-29" value="0..N" style="text;html=1;align=center;verticalAlign=middle;resizable=0;points=[];autosize=1;strokeColor=none;fillColor=none;" vertex="1" parent="1">
          <mxGeometry x="322" y="252" width="50" height="30" as="geometry" />
        </mxCell>
        <mxCell id="gWMrlw6gH3RxY7C6o_Ru-30" value="" style="endArrow=none;html=1;rounded=0;" edge="1" parent="1" source="gWMrlw6gH3RxY7C6o_Ru-1" target="gWMrlw6gH3RxY7C6o_Ru-6">
          <mxGeometry width="50" height="50" relative="1" as="geometry">
            <mxPoint x="690" y="75" as="sourcePoint" />
            <mxPoint x="620" y="140" as="targetPoint" />
          </mxGeometry>
        </mxCell>
        <mxCell id="gWMrlw6gH3RxY7C6o_Ru-31" value="satisface" style="shape=rhombus;perimeter=rhombusPerimeter;whiteSpace=wrap;html=1;align=center;" vertex="1" parent="1">
          <mxGeometry x="800" y="295" width="120" height="60" as="geometry" />
        </mxCell>
        <mxCell id="gWMrlw6gH3RxY7C6o_Ru-32" value="" style="endArrow=none;html=1;rounded=0;" edge="1" parent="1" source="gWMrlw6gH3RxY7C6o_Ru-23" target="gWMrlw6gH3RxY7C6o_Ru-31">
          <mxGeometry width="50" height="50" relative="1" as="geometry">
            <mxPoint x="380" y="180" as="sourcePoint" />
            <mxPoint x="380" y="120" as="targetPoint" />
          </mxGeometry>
        </mxCell>
        <mxCell id="gWMrlw6gH3RxY7C6o_Ru-33" value="" style="endArrow=none;html=1;rounded=0;" edge="1" parent="1" source="gWMrlw6gH3RxY7C6o_Ru-3" target="gWMrlw6gH3RxY7C6o_Ru-31">
          <mxGeometry width="50" height="50" relative="1" as="geometry">
            <mxPoint x="480" y="335" as="sourcePoint" />
            <mxPoint x="810" y="335" as="targetPoint" />
          </mxGeometry>
        </mxCell>
        <mxCell id="gWMrlw6gH3RxY7C6o_Ru-34" value="0..N" style="text;html=1;align=center;verticalAlign=middle;resizable=0;points=[];autosize=1;strokeColor=none;fillColor=none;" vertex="1" parent="1">
          <mxGeometry x="809" y="111" width="50" height="30" as="geometry" />
        </mxCell>
        <mxCell id="gWMrlw6gH3RxY7C6o_Ru-35" value="0..N" style="text;html=1;align=center;verticalAlign=middle;resizable=0;points=[];autosize=1;strokeColor=none;fillColor=none;" vertex="1" parent="1">
          <mxGeometry x="470" y="295" width="50" height="30" as="geometry" />
        </mxCell>
        <mxCell id="gWMrlw6gH3RxY7C6o_Ru-37" value="postula para" style="shape=rhombus;perimeter=rhombusPerimeter;whiteSpace=wrap;html=1;align=center;" vertex="1" parent="1">
          <mxGeometry x="90" y="170" width="120" height="60" as="geometry" />
        </mxCell>
        <mxCell id="gWMrlw6gH3RxY7C6o_Ru-40" value="0..N" style="text;html=1;align=center;verticalAlign=middle;resizable=0;points=[];autosize=1;strokeColor=none;fillColor=none;" vertex="1" parent="1">
          <mxGeometry x="220" y="66" width="50" height="30" as="geometry" />
        </mxCell>
        <mxCell id="gWMrlw6gH3RxY7C6o_Ru-42" value="" style="endArrow=none;html=1;rounded=0;edgeStyle=orthogonalEdgeStyle;" edge="1" parent="1" source="gWMrlw6gH3RxY7C6o_Ru-37" target="gWMrlw6gH3RxY7C6o_Ru-1">
          <mxGeometry width="50" height="50" relative="1" as="geometry">
            <mxPoint x="380" y="180" as="sourcePoint" />
            <mxPoint x="380" y="120" as="targetPoint" />
            <Array as="points">
              <mxPoint x="150" y="65" />
            </Array>
          </mxGeometry>
        </mxCell>
        <mxCell id="gWMrlw6gH3RxY7C6o_Ru-44" value="" style="endArrow=none;html=1;rounded=0;edgeStyle=orthogonalEdgeStyle;" edge="1" parent="1" source="gWMrlw6gH3RxY7C6o_Ru-37" target="gWMrlw6gH3RxY7C6o_Ru-23">
          <mxGeometry width="50" height="50" relative="1" as="geometry">
            <mxPoint x="160" y="180" as="sourcePoint" />
            <mxPoint x="280" y="75" as="targetPoint" />
            <Array as="points">
              <mxPoint x="150" y="330" />
            </Array>
          </mxGeometry>
        </mxCell>
        <mxCell id="gWMrlw6gH3RxY7C6o_Ru-45" value="0..N" style="text;html=1;align=center;verticalAlign=middle;resizable=0;points=[];autosize=1;strokeColor=none;fillColor=none;" vertex="1" parent="1">
          <mxGeometry x="220" y="300" width="50" height="30" as="geometry" />
        </mxCell>
        <mxCell id="gWMrlw6gH3RxY7C6o_Ru-46" value="*1" style="text;html=1;align=center;verticalAlign=middle;resizable=0;points=[];autosize=1;strokeColor=none;fillColor=#B3B3B3;fontSize=20;fontStyle=1" vertex="1" parent="1">
          <mxGeometry x="220" y="180" width="40" height="40" as="geometry" />
        </mxCell>
        <mxCell id="gWMrlw6gH3RxY7C6o_Ru-47" value="&lt;div&gt;Normas informales:&lt;u&gt;&lt;br&gt;&lt;/u&gt;&lt;/div&gt;&lt;div&gt;&lt;u&gt;*1&lt;/u&gt;: Un usuario que postula para con una necesidad de otro usuario debe tener una habilidad que la satisfaga.&lt;/div&gt;&lt;div&gt;&lt;u&gt;*1&lt;/u&gt;: Un usuario no puede postular para una necesidad del mismo.&lt;/div&gt;&lt;div&gt;&lt;u&gt;*1&lt;/u&gt;: Los atributos &quot;acuerdo del colaborador&quot; y &quot;acuerdo del necesitado&quot; representan si ambas partes est치n de acuerdo en la colaboraci칩n. Pueden tener tres valores: &quot;aprobado&quot;, &quot;rechazado&quot; o &quot;pendiente&quot;.&lt;br&gt;&lt;/div&gt;&lt;div&gt;&lt;u&gt;*2&lt;/u&gt;: Los atributos escritos en color gris son opcionales.&lt;/div&gt;&lt;div&gt;&lt;u&gt;*3&lt;/u&gt;: Todo usuario debe tener al menos una informaci칩n de contacto.&lt;br&gt;&lt;/div&gt;&lt;div&gt;&lt;u&gt;*4&lt;/u&gt;: La contrase침a debe estar protegida (hash, salt, etc.)&lt;br&gt;&lt;/div&gt;" style="text;html=1;strokeColor=none;fillColor=none;align=left;verticalAlign=top;whiteSpace=wrap;rounded=0;" vertex="1" parent="1">
          <mxGeometry x="60" y="990" width="1150" height="130" as="geometry" />
        </mxCell>
        <mxCell id="gWMrlw6gH3RxY7C6o_Ru-48" value="&lt;div&gt;Acuerdo del&lt;/div&gt;&lt;div&gt;necesitado&lt;/div&gt;" style="ellipse;whiteSpace=wrap;html=1;align=center;" vertex="1" parent="1">
          <mxGeometry x="20" y="110" width="100" height="40" as="geometry" />
        </mxCell>
        <mxCell id="gWMrlw6gH3RxY7C6o_Ru-51" value="&lt;div&gt;Acuerdo del&lt;/div&gt;&lt;div&gt;colaborador&lt;/div&gt;" style="ellipse;whiteSpace=wrap;html=1;align=center;" vertex="1" parent="1">
          <mxGeometry x="-40" y="180" width="100" height="40" as="geometry" />
        </mxCell>
        <mxCell id="gWMrlw6gH3RxY7C6o_Ru-52" value="" style="endArrow=none;html=1;rounded=0;" edge="1" parent="1" source="gWMrlw6gH3RxY7C6o_Ru-48" target="gWMrlw6gH3RxY7C6o_Ru-37">
          <mxGeometry width="50" height="50" relative="1" as="geometry">
            <mxPoint x="380" y="180" as="sourcePoint" />
            <mxPoint x="380" y="120" as="targetPoint" />
          </mxGeometry>
        </mxCell>
        <mxCell id="gWMrlw6gH3RxY7C6o_Ru-53" value="" style="endArrow=none;html=1;rounded=0;" edge="1" parent="1" source="gWMrlw6gH3RxY7C6o_Ru-51" target="gWMrlw6gH3RxY7C6o_Ru-37">
          <mxGeometry width="50" height="50" relative="1" as="geometry">
            <mxPoint x="73" y="190" as="sourcePoint" />
            <mxPoint x="119" y="201" as="targetPoint" />
          </mxGeometry>
        </mxCell>
        <mxCell id="gWMrlw6gH3RxY7C6o_Ru-55" value="&lt;div&gt;Estado&lt;/div&gt;" style="ellipse;whiteSpace=wrap;html=1;align=center;" vertex="1" parent="1">
          <mxGeometry x="260" y="455" width="100" height="40" as="geometry" />
        </mxCell>
        <mxCell id="gWMrlw6gH3RxY7C6o_Ru-56" value="" style="endArrow=none;html=1;rounded=0;" edge="1" parent="1" source="gWMrlw6gH3RxY7C6o_Ru-55" target="gWMrlw6gH3RxY7C6o_Ru-23">
          <mxGeometry width="50" height="50" relative="1" as="geometry">
            <mxPoint x="70" y="210" as="sourcePoint" />
            <mxPoint x="100" y="210" as="targetPoint" />
          </mxGeometry>
        </mxCell>
        <mxCell id="gWMrlw6gH3RxY7C6o_Ru-57" value="Ubicaci칩n" style="ellipse;whiteSpace=wrap;html=1;align=center;" vertex="1" parent="1">
          <mxGeometry x="370" y="470" width="100" height="40" as="geometry" />
        </mxCell>
        <mxCell id="gWMrlw6gH3RxY7C6o_Ru-58" value="" style="endArrow=none;html=1;rounded=0;" edge="1" parent="1" source="gWMrlw6gH3RxY7C6o_Ru-57" target="gWMrlw6gH3RxY7C6o_Ru-23">
          <mxGeometry width="50" height="50" relative="1" as="geometry">
            <mxPoint x="380" y="430" as="sourcePoint" />
            <mxPoint x="380" y="380" as="targetPoint" />
          </mxGeometry>
        </mxCell>
        <mxCell id="gWMrlw6gH3RxY7C6o_Ru-59" value="ID" style="ellipse;whiteSpace=wrap;html=1;align=center;fontStyle=4" vertex="1" parent="1">
          <mxGeometry x="160" y="350" width="40" height="40" as="geometry" />
        </mxCell>
        <mxCell id="gWMrlw6gH3RxY7C6o_Ru-61" value="Nombre" style="ellipse;whiteSpace=wrap;html=1;align=center;fontStyle=0" vertex="1" parent="1">
          <mxGeometry x="140" y="430" width="100" height="40" as="geometry" />
        </mxCell>
        <mxCell id="gWMrlw6gH3RxY7C6o_Ru-62" value="" style="endArrow=none;html=1;rounded=0;" edge="1" parent="1" source="gWMrlw6gH3RxY7C6o_Ru-59" target="gWMrlw6gH3RxY7C6o_Ru-23">
          <mxGeometry width="50" height="50" relative="1" as="geometry">
            <mxPoint x="380" y="430" as="sourcePoint" />
            <mxPoint x="380" y="380" as="targetPoint" />
          </mxGeometry>
        </mxCell>
        <mxCell id="gWMrlw6gH3RxY7C6o_Ru-63" value="" style="endArrow=none;html=1;rounded=0;" edge="1" parent="1" source="gWMrlw6gH3RxY7C6o_Ru-61" target="gWMrlw6gH3RxY7C6o_Ru-23">
          <mxGeometry width="50" height="50" relative="1" as="geometry">
            <mxPoint x="276" y="403" as="sourcePoint" />
            <mxPoint x="311" y="380" as="targetPoint" />
          </mxGeometry>
        </mxCell>
        <mxCell id="gWMrlw6gH3RxY7C6o_Ru-64" value="ID" style="ellipse;whiteSpace=wrap;html=1;align=center;fontStyle=4" vertex="1" parent="1">
          <mxGeometry x="355" y="-227" width="30" height="30" as="geometry" />
        </mxCell>
        <mxCell id="gWMrlw6gH3RxY7C6o_Ru-65" value="Nombres" style="ellipse;shape=doubleEllipse;margin=3;whiteSpace=wrap;html=1;align=center;" vertex="1" parent="1">
          <mxGeometry x="255" y="-200" width="100" height="40" as="geometry" />
        </mxCell>
        <mxCell id="gWMrlw6gH3RxY7C6o_Ru-66" value="Apellidos" style="ellipse;shape=doubleEllipse;margin=3;whiteSpace=wrap;html=1;align=center;" vertex="1" parent="1">
          <mxGeometry x="390" y="-200" width="100" height="40" as="geometry" />
        </mxCell>
        <mxCell id="gWMrlw6gH3RxY7C6o_Ru-68" value="Contacto" style="ellipse;whiteSpace=wrap;html=1;align=center;" vertex="1" parent="1">
          <mxGeometry x="560" y="-90" width="60" height="40" as="geometry" />
        </mxCell>
        <mxCell id="gWMrlw6gH3RxY7C6o_Ru-69" value="" style="endArrow=none;html=1;rounded=0;" edge="1" parent="1" source="gWMrlw6gH3RxY7C6o_Ru-1" target="gWMrlw6gH3RxY7C6o_Ru-64">
          <mxGeometry width="50" height="50" relative="1" as="geometry">
            <mxPoint x="480" y="75" as="sourcePoint" />
            <mxPoint x="340" y="-10" as="targetPoint" />
          </mxGeometry>
        </mxCell>
        <mxCell id="gWMrlw6gH3RxY7C6o_Ru-70" value="" style="endArrow=none;html=1;rounded=0;" edge="1" parent="1" source="gWMrlw6gH3RxY7C6o_Ru-1" target="gWMrlw6gH3RxY7C6o_Ru-65">
          <mxGeometry width="50" height="50" relative="1" as="geometry">
            <mxPoint x="342" y="30" as="sourcePoint" />
            <mxPoint x="305" y="-14" as="targetPoint" />
          </mxGeometry>
        </mxCell>
        <mxCell id="gWMrlw6gH3RxY7C6o_Ru-71" value="" style="endArrow=none;html=1;rounded=0;" edge="1" parent="1" source="gWMrlw6gH3RxY7C6o_Ru-1" target="gWMrlw6gH3RxY7C6o_Ru-68">
          <mxGeometry width="50" height="50" relative="1" as="geometry">
            <mxPoint x="372" y="30" as="sourcePoint" />
            <mxPoint x="353" y="-80" as="targetPoint" />
          </mxGeometry>
        </mxCell>
        <mxCell id="gWMrlw6gH3RxY7C6o_Ru-72" value="" style="endArrow=none;html=1;rounded=0;" edge="1" parent="1" source="gWMrlw6gH3RxY7C6o_Ru-1" target="gWMrlw6gH3RxY7C6o_Ru-66">
          <mxGeometry width="50" height="50" relative="1" as="geometry">
            <mxPoint x="403" y="30" as="sourcePoint" />
            <mxPoint x="430" y="-20" as="targetPoint" />
          </mxGeometry>
        </mxCell>
        <mxCell id="gWMrlw6gH3RxY7C6o_Ru-73" value="&lt;span&gt;Tel칠fono&lt;/span&gt;" style="ellipse;whiteSpace=wrap;html=1;align=center;fontStyle=0;fontColor=#808080;" vertex="1" parent="1">
          <mxGeometry x="640" y="-140" width="60" height="30" as="geometry" />
        </mxCell>
        <mxCell id="gWMrlw6gH3RxY7C6o_Ru-74" value="Email" style="ellipse;whiteSpace=wrap;html=1;align=center;fontStyle=0;fontColor=#808080;" vertex="1" parent="1">
          <mxGeometry x="640" y="-100" width="60" height="30" as="geometry" />
        </mxCell>
        <mxCell id="gWMrlw6gH3RxY7C6o_Ru-75" value="" style="endArrow=none;html=1;rounded=0;fontStyle=0;fontColor=#808080;" edge="1" parent="1" source="gWMrlw6gH3RxY7C6o_Ru-74" target="gWMrlw6gH3RxY7C6o_Ru-68">
          <mxGeometry width="50" height="50" relative="1" as="geometry">
            <mxPoint x="548" y="-20" as="sourcePoint" />
            <mxPoint x="580" y="-45" as="targetPoint" />
          </mxGeometry>
        </mxCell>
        <mxCell id="gWMrlw6gH3RxY7C6o_Ru-76" value="" style="endArrow=none;html=1;rounded=0;" edge="1" parent="1" source="gWMrlw6gH3RxY7C6o_Ru-73" target="gWMrlw6gH3RxY7C6o_Ru-68">
          <mxGeometry width="50" height="50" relative="1" as="geometry">
            <mxPoint x="652" y="-70" as="sourcePoint" />
            <mxPoint x="629" y="-65" as="targetPoint" />
          </mxGeometry>
        </mxCell>
        <mxCell id="gWMrlw6gH3RxY7C6o_Ru-77" value="*3" style="text;html=1;align=center;verticalAlign=middle;resizable=0;points=[];autosize=1;strokeColor=none;fillColor=#B3B3B3;fontSize=20;fontStyle=1" vertex="1" parent="1">
          <mxGeometry x="710" y="-130" width="40" height="40" as="geometry" />
        </mxCell>
        <mxCell id="gWMrlw6gH3RxY7C6o_Ru-79" value="Nacionalidad" style="ellipse;whiteSpace=wrap;html=1;align=center;" vertex="1" parent="1">
          <mxGeometry x="110" y="-160" width="80" height="40" as="geometry" />
        </mxCell>
        <mxCell id="gWMrlw6gH3RxY7C6o_Ru-83" value="Direcci칩n" style="ellipse;whiteSpace=wrap;html=1;align=center;fontColor=#808080;" vertex="1" parent="1">
          <mxGeometry x="20" y="-140" width="80" height="40" as="geometry" />
        </mxCell>
        <mxCell id="gWMrlw6gH3RxY7C6o_Ru-84" value="" style="endArrow=none;html=1;rounded=0;" edge="1" parent="1" source="gWMrlw6gH3RxY7C6o_Ru-1" target="gWMrlw6gH3RxY7C6o_Ru-79">
          <mxGeometry width="50" height="50" relative="1" as="geometry">
            <mxPoint x="368" y="30" as="sourcePoint" />
            <mxPoint x="345" y="-60" as="targetPoint" />
          </mxGeometry>
        </mxCell>
        <mxCell id="gWMrlw6gH3RxY7C6o_Ru-85" value="" style="endArrow=none;html=1;rounded=0;" edge="1" parent="1" source="gWMrlw6gH3RxY7C6o_Ru-1" target="gWMrlw6gH3RxY7C6o_Ru-83">
          <mxGeometry width="50" height="50" relative="1" as="geometry">
            <mxPoint x="323" y="30" as="sourcePoint" />
            <mxPoint x="231" y="-43" as="targetPoint" />
          </mxGeometry>
        </mxCell>
        <mxCell id="gWMrlw6gH3RxY7C6o_Ru-88" value="&lt;div&gt;RESTRICCI칍N&lt;/div&gt;&lt;div&gt;DE TIEMPO&lt;/div&gt;" style="shape=ext;margin=3;double=1;whiteSpace=wrap;html=1;align=center;fontSize=20;fontStyle=1" vertex="1" parent="1">
          <mxGeometry x="482" y="630" width="200" height="90" as="geometry" />
        </mxCell>
        <mxCell id="gWMrlw6gH3RxY7C6o_Ru-89" value="tiene" style="shape=rhombus;double=1;perimeter=rhombusPerimeter;whiteSpace=wrap;html=1;align=center;" vertex="1" parent="1">
          <mxGeometry x="522" y="460" width="120" height="60" as="geometry" />
        </mxCell>
        <mxCell id="gWMrlw6gH3RxY7C6o_Ru-90" value="" style="endArrow=none;html=1;rounded=0;edgeStyle=orthogonalEdgeStyle;elbow=vertical;entryX=1;entryY=0.75;entryDx=0;entryDy=0;" edge="1" parent="1" source="gWMrlw6gH3RxY7C6o_Ru-89" target="gWMrlw6gH3RxY7C6o_Ru-23">
          <mxGeometry width="50" height="50" relative="1" as="geometry">
            <mxPoint x="160" y="180" as="sourcePoint" />
            <mxPoint x="280" y="75" as="targetPoint" />
            <Array as="points">
              <mxPoint x="582" y="348" />
            </Array>
          </mxGeometry>
        </mxCell>
        <mxCell id="gWMrlw6gH3RxY7C6o_Ru-91" value="" style="endArrow=none;html=1;rounded=0;elbow=vertical;" edge="1" parent="1" source="gWMrlw6gH3RxY7C6o_Ru-89" target="gWMrlw6gH3RxY7C6o_Ru-88">
          <mxGeometry width="50" height="50" relative="1" as="geometry">
            <mxPoint x="592" y="470" as="sourcePoint" />
            <mxPoint x="480" y="358" as="targetPoint" />
          </mxGeometry>
        </mxCell>
        <mxCell id="gWMrlw6gH3RxY7C6o_Ru-92" value="1" style="text;html=1;align=center;verticalAlign=middle;resizable=0;points=[];autosize=1;strokeColor=none;fillColor=none;" vertex="1" parent="1">
          <mxGeometry x="470" y="347" width="30" height="30" as="geometry" />
        </mxCell>
        <mxCell id="gWMrlw6gH3RxY7C6o_Ru-93" value="0..1" style="text;html=1;align=center;verticalAlign=middle;resizable=0;points=[];autosize=1;strokeColor=none;fillColor=none;" vertex="1" parent="1">
          <mxGeometry x="542" y="599" width="40" height="30" as="geometry" />
        </mxCell>
        <mxCell id="gWMrlw6gH3RxY7C6o_Ru-94" value="&lt;div&gt;PERIODO&lt;/div&gt;&lt;div&gt;DE TIEMPO&lt;br&gt;&lt;/div&gt;" style="whiteSpace=wrap;html=1;align=center;fontSize=20;fontStyle=1" vertex="1" parent="1">
          <mxGeometry x="270" y="790" width="200" height="90" as="geometry" />
        </mxCell>
        <mxCell id="gWMrlw6gH3RxY7C6o_Ru-95" value="FECHA PUNTUAL" style="whiteSpace=wrap;html=1;align=center;fontSize=20;fontStyle=1" vertex="1" parent="1">
          <mxGeometry x="482" y="790" width="200" height="90" as="geometry" />
        </mxCell>
        <mxCell id="gWMrlw6gH3RxY7C6o_Ru-96" value="FECHA L칈MITE" style="whiteSpace=wrap;html=1;align=center;fontSize=20;fontStyle=1" vertex="1" parent="1">
          <mxGeometry x="690" y="790" width="200" height="90" as="geometry" />
        </mxCell>
        <mxCell id="gWMrlw6gH3RxY7C6o_Ru-97" value="" style="endArrow=none;html=1;rounded=0;elbow=vertical;edgeStyle=elbowEdgeStyle;startArrow=open;startFill=0;strokeWidth=1;jumpSize=6;endSize=6;startSize=15;" edge="1" parent="1" source="gWMrlw6gH3RxY7C6o_Ru-88" target="gWMrlw6gH3RxY7C6o_Ru-94">
          <mxGeometry width="50" height="50" relative="1" as="geometry">
            <mxPoint x="592" y="530" as="sourcePoint" />
            <mxPoint x="592" y="640" as="targetPoint" />
          </mxGeometry>
        </mxCell>
        <mxCell id="gWMrlw6gH3RxY7C6o_Ru-98" value="" style="endArrow=none;html=1;rounded=0;elbow=vertical;edgeStyle=elbowEdgeStyle;startArrow=open;startFill=0;strokeWidth=1;jumpSize=6;endSize=6;startSize=15;" edge="1" parent="1" source="gWMrlw6gH3RxY7C6o_Ru-88" target="gWMrlw6gH3RxY7C6o_Ru-95">
          <mxGeometry width="50" height="50" relative="1" as="geometry">
            <mxPoint x="592" y="730" as="sourcePoint" />
            <mxPoint x="380" y="800" as="targetPoint" />
          </mxGeometry>
        </mxCell>
        <mxCell id="gWMrlw6gH3RxY7C6o_Ru-99" value="" style="endArrow=none;html=1;rounded=0;elbow=vertical;edgeStyle=elbowEdgeStyle;startArrow=open;startFill=0;strokeWidth=1;jumpSize=6;endSize=6;startSize=15;" edge="1" parent="1" source="gWMrlw6gH3RxY7C6o_Ru-88" target="gWMrlw6gH3RxY7C6o_Ru-96">
          <mxGeometry width="50" height="50" relative="1" as="geometry">
            <mxPoint x="592" y="730" as="sourcePoint" />
            <mxPoint x="592" y="800" as="targetPoint" />
          </mxGeometry>
        </mxCell>
        <mxCell id="gWMrlw6gH3RxY7C6o_Ru-100" value="(t, e)" style="text;html=1;align=center;verticalAlign=middle;resizable=0;points=[];autosize=1;strokeColor=none;fillColor=none;" vertex="1" parent="1">
          <mxGeometry x="592" y="725" width="50" height="30" as="geometry" />
        </mxCell>
        <mxCell id="gWMrlw6gH3RxY7C6o_Ru-101" value="&lt;div&gt;Fecha y hora - Inicio&lt;/div&gt;" style="ellipse;whiteSpace=wrap;html=1;align=center;" vertex="1" parent="1">
          <mxGeometry x="230" y="900" width="125" height="40" as="geometry" />
        </mxCell>
        <mxCell id="gWMrlw6gH3RxY7C6o_Ru-102" value="Fecha y hora - Fin" style="ellipse;whiteSpace=wrap;html=1;align=center;" vertex="1" parent="1">
          <mxGeometry x="380" y="900" width="120" height="40" as="geometry" />
        </mxCell>
        <mxCell id="gWMrlw6gH3RxY7C6o_Ru-103" value="" style="endArrow=none;html=1;rounded=0;elbow=vertical;" edge="1" parent="1" source="gWMrlw6gH3RxY7C6o_Ru-94" target="gWMrlw6gH3RxY7C6o_Ru-101">
          <mxGeometry width="50" height="50" relative="1" as="geometry">
            <mxPoint x="330" y="700" as="sourcePoint" />
            <mxPoint x="320" y="740" as="targetPoint" />
          </mxGeometry>
        </mxCell>
        <mxCell id="gWMrlw6gH3RxY7C6o_Ru-104" value="" style="endArrow=none;html=1;rounded=0;elbow=vertical;" edge="1" parent="1" source="gWMrlw6gH3RxY7C6o_Ru-94" target="gWMrlw6gH3RxY7C6o_Ru-102">
          <mxGeometry width="50" height="50" relative="1" as="geometry">
            <mxPoint x="280" y="829" as="sourcePoint" />
            <mxPoint x="250" y="824" as="targetPoint" />
          </mxGeometry>
        </mxCell>
        <mxCell id="gWMrlw6gH3RxY7C6o_Ru-105" value="Fecha" style="ellipse;whiteSpace=wrap;html=1;align=center;" vertex="1" parent="1">
          <mxGeometry x="557" y="900" width="50" height="40" as="geometry" />
        </mxCell>
        <mxCell id="gWMrlw6gH3RxY7C6o_Ru-106" value="" style="endArrow=none;html=1;rounded=0;elbow=vertical;" edge="1" parent="1" source="gWMrlw6gH3RxY7C6o_Ru-95" target="gWMrlw6gH3RxY7C6o_Ru-105">
          <mxGeometry width="50" height="50" relative="1" as="geometry">
            <mxPoint x="359" y="890" as="sourcePoint" />
            <mxPoint x="349" y="911" as="targetPoint" />
          </mxGeometry>
        </mxCell>
        <mxCell id="gWMrlw6gH3RxY7C6o_Ru-109" value="(1)" style="text;html=1;align=center;verticalAlign=middle;resizable=0;points=[];autosize=1;strokeColor=none;fillColor=#B3B3B3;fontSize=20;fontStyle=1" vertex="1" parent="1">
          <mxGeometry x="40" y="-195" width="50" height="40" as="geometry" />
        </mxCell>
        <mxCell id="gWMrlw6gH3RxY7C6o_Ru-110" value="&lt;div&gt;Bit치cora:&lt;u&gt;&lt;br&gt;&lt;/u&gt;&lt;/div&gt;&lt;div&gt;&lt;u&gt;(1)&lt;/u&gt;: Se asume que los usuarios solo pueden tener una direcci칩n.&lt;/div&gt;&lt;div&gt;&lt;u&gt;(1)&lt;/u&gt;: Se asume que los usuarios pueden no tener una direcci칩n.&lt;br&gt;&lt;/div&gt;" style="text;html=1;strokeColor=none;fillColor=none;align=left;verticalAlign=top;whiteSpace=wrap;rounded=0;" vertex="1" parent="1">
          <mxGeometry x="60" y="1150" width="360" height="60" as="geometry" />
        </mxCell>
        <mxCell id="gWMrlw6gH3RxY7C6o_Ru-111" value="Fecha y hora" style="ellipse;whiteSpace=wrap;html=1;align=center;" vertex="1" parent="1">
          <mxGeometry x="740" y="900" width="100" height="40" as="geometry" />
        </mxCell>
        <mxCell id="gWMrlw6gH3RxY7C6o_Ru-114" value="" style="endArrow=none;html=1;rounded=0;elbow=vertical;" edge="1" parent="1" source="gWMrlw6gH3RxY7C6o_Ru-96" target="gWMrlw6gH3RxY7C6o_Ru-111">
          <mxGeometry width="50" height="50" relative="1" as="geometry">
            <mxPoint x="592" y="890" as="sourcePoint" />
            <mxPoint x="592" y="910" as="targetPoint" />
          </mxGeometry>
        </mxCell>
        <mxCell id="gWMrlw6gH3RxY7C6o_Ru-119" value="" style="endArrow=none;html=1;rounded=0;" edge="1" parent="1" source="gWMrlw6gH3RxY7C6o_Ru-165" target="gWMrlw6gH3RxY7C6o_Ru-123">
          <mxGeometry width="50" height="50" relative="1" as="geometry">
            <mxPoint x="490" y="-240" as="sourcePoint" />
            <mxPoint x="599.0798065296249" y="-203.96009673518734" as="targetPoint" />
          </mxGeometry>
        </mxCell>
        <mxCell id="gWMrlw6gH3RxY7C6o_Ru-123" value="&lt;div&gt;Distancia&lt;/div&gt;" style="ellipse;whiteSpace=wrap;html=1;align=center;" vertex="1" parent="1">
          <mxGeometry x="570" y="-350" width="82" height="30" as="geometry" />
        </mxCell>
        <mxCell id="gWMrlw6gH3RxY7C6o_Ru-126" value="&lt;div&gt;Activada?&lt;br&gt;&lt;/div&gt;" style="ellipse;whiteSpace=wrap;html=1;align=center;" vertex="1" parent="1">
          <mxGeometry x="664" y="-350" width="76" height="30" as="geometry" />
        </mxCell>
        <mxCell id="gWMrlw6gH3RxY7C6o_Ru-129" value="Estado" style="ellipse;whiteSpace=wrap;html=1;align=center;" vertex="1" parent="1">
          <mxGeometry x="20" y="255" width="100" height="40" as="geometry" />
        </mxCell>
        <mxCell id="gWMrlw6gH3RxY7C6o_Ru-130" value="" style="endArrow=none;html=1;rounded=0;" edge="1" parent="1" source="gWMrlw6gH3RxY7C6o_Ru-129" target="gWMrlw6gH3RxY7C6o_Ru-37">
          <mxGeometry width="50" height="50" relative="1" as="geometry">
            <mxPoint x="100" y="158" as="sourcePoint" />
            <mxPoint x="138" y="191" as="targetPoint" />
          </mxGeometry>
        </mxCell>
        <mxCell id="gWMrlw6gH3RxY7C6o_Ru-132" value="Contrase침a" style="ellipse;whiteSpace=wrap;html=1;align=center;" vertex="1" parent="1">
          <mxGeometry x="165" y="-210" width="80" height="40" as="geometry" />
        </mxCell>
        <mxCell id="gWMrlw6gH3RxY7C6o_Ru-133" value="" style="endArrow=none;html=1;rounded=0;" edge="1" parent="1" source="gWMrlw6gH3RxY7C6o_Ru-1" target="gWMrlw6gH3RxY7C6o_Ru-132">
          <mxGeometry width="50" height="50" relative="1" as="geometry">
            <mxPoint x="361" y="30" as="sourcePoint" />
            <mxPoint x="323" y="-60" as="targetPoint" />
          </mxGeometry>
        </mxCell>
        <mxCell id="gWMrlw6gH3RxY7C6o_Ru-134" value="*4" style="text;html=1;align=center;verticalAlign=middle;resizable=0;points=[];autosize=1;strokeColor=none;fillColor=#B3B3B3;fontSize=20;fontStyle=1" vertex="1" parent="1">
          <mxGeometry x="190" y="-255" width="40" height="40" as="geometry" />
        </mxCell>
        <mxCell id="gWMrlw6gH3RxY7C6o_Ru-135" value="Foto C.I." style="ellipse;whiteSpace=wrap;html=1;align=center;" vertex="1" parent="1">
          <mxGeometry x="-10" y="-20" width="80" height="40" as="geometry" />
        </mxCell>
        <mxCell id="gWMrlw6gH3RxY7C6o_Ru-136" value="" style="endArrow=none;html=1;rounded=0;" edge="1" parent="1" source="gWMrlw6gH3RxY7C6o_Ru-1" target="gWMrlw6gH3RxY7C6o_Ru-135">
          <mxGeometry width="50" height="50" relative="1" as="geometry">
            <mxPoint x="344" y="30" as="sourcePoint" />
            <mxPoint x="240" y="-101" as="targetPoint" />
          </mxGeometry>
        </mxCell>
        <mxCell id="gWMrlw6gH3RxY7C6o_Ru-137" value="&lt;div&gt;Nombre de&lt;/div&gt;&lt;div&gt;usuario&lt;br&gt;&lt;/div&gt;" style="ellipse;whiteSpace=wrap;html=1;align=center;" vertex="1" parent="1">
          <mxGeometry x="-10" y="-90" width="80" height="40" as="geometry" />
        </mxCell>
        <mxCell id="gWMrlw6gH3RxY7C6o_Ru-138" value="" style="endArrow=none;html=1;rounded=0;" edge="1" parent="1" source="gWMrlw6gH3RxY7C6o_Ru-1" target="gWMrlw6gH3RxY7C6o_Ru-137">
          <mxGeometry width="50" height="50" relative="1" as="geometry">
            <mxPoint x="361" y="30" as="sourcePoint" />
            <mxPoint x="323" y="-60" as="targetPoint" />
          </mxGeometry>
        </mxCell>
        <mxCell id="gWMrlw6gH3RxY7C6o_Ru-139" value="NOTIFICACI칍N" style="shape=ext;margin=3;double=1;whiteSpace=wrap;html=1;align=center;fontSize=20;fontStyle=1" vertex="1" parent="1">
          <mxGeometry x="950" y="155" width="200" height="90" as="geometry" />
        </mxCell>
        <mxCell id="gWMrlw6gH3RxY7C6o_Ru-140" value="tiene" style="shape=rhombus;double=1;perimeter=rhombusPerimeter;whiteSpace=wrap;html=1;align=center;" vertex="1" parent="1">
          <mxGeometry x="475" y="170" width="120" height="60" as="geometry" />
        </mxCell>
        <mxCell id="gWMrlw6gH3RxY7C6o_Ru-141" value="" style="endArrow=none;html=1;rounded=0;entryX=0.75;entryY=1;entryDx=0;entryDy=0;edgeStyle=elbowEdgeStyle;elbow=vertical;" edge="1" parent="1" source="gWMrlw6gH3RxY7C6o_Ru-140" target="gWMrlw6gH3RxY7C6o_Ru-1">
          <mxGeometry width="50" height="50" relative="1" as="geometry">
            <mxPoint x="380" y="180" as="sourcePoint" />
            <mxPoint x="380" y="120" as="targetPoint" />
          </mxGeometry>
        </mxCell>
        <mxCell id="gWMrlw6gH3RxY7C6o_Ru-142" value="" style="endArrow=none;html=1;rounded=0;" edge="1" parent="1" source="gWMrlw6gH3RxY7C6o_Ru-139" target="gWMrlw6gH3RxY7C6o_Ru-140">
          <mxGeometry width="50" height="50" relative="1" as="geometry">
            <mxPoint x="870" y="120" as="sourcePoint" />
            <mxPoint x="870" y="305" as="targetPoint" />
          </mxGeometry>
        </mxCell>
        <mxCell id="gWMrlw6gH3RxY7C6o_Ru-144" value="1" style="text;html=1;align=center;verticalAlign=middle;resizable=0;points=[];autosize=1;strokeColor=none;fillColor=none;" vertex="1" parent="1">
          <mxGeometry x="422" y="112" width="30" height="30" as="geometry" />
        </mxCell>
        <mxCell id="gWMrlw6gH3RxY7C6o_Ru-145" value="0..N" style="text;html=1;align=center;verticalAlign=middle;resizable=0;points=[];autosize=1;strokeColor=none;fillColor=none;" vertex="1" parent="1">
          <mxGeometry x="899" y="171" width="50" height="30" as="geometry" />
        </mxCell>
        <mxCell id="gWMrlw6gH3RxY7C6o_Ru-146" value="ID" style="ellipse;whiteSpace=wrap;html=1;align=center;fontStyle=4" vertex="1" parent="1">
          <mxGeometry x="1180" y="155" width="30" height="30" as="geometry" />
        </mxCell>
        <mxCell id="gWMrlw6gH3RxY7C6o_Ru-147" value="" style="endArrow=none;html=1;rounded=0;" edge="1" parent="1" source="gWMrlw6gH3RxY7C6o_Ru-146" target="gWMrlw6gH3RxY7C6o_Ru-139">
          <mxGeometry width="50" height="50" relative="1" as="geometry">
            <mxPoint x="870" y="120" as="sourcePoint" />
            <mxPoint x="870" y="305" as="targetPoint" />
          </mxGeometry>
        </mxCell>
        <mxCell id="gWMrlw6gH3RxY7C6o_Ru-148" value="Descripci칩n" style="ellipse;whiteSpace=wrap;html=1;align=center;fontStyle=0" vertex="1" parent="1">
          <mxGeometry x="1160" y="215" width="95" height="30" as="geometry" />
        </mxCell>
        <mxCell id="gWMrlw6gH3RxY7C6o_Ru-149" value="" style="endArrow=none;html=1;rounded=0;" edge="1" parent="1" source="gWMrlw6gH3RxY7C6o_Ru-148" target="gWMrlw6gH3RxY7C6o_Ru-139">
          <mxGeometry width="50" height="50" relative="1" as="geometry">
            <mxPoint x="1007" y="101" as="sourcePoint" />
            <mxPoint x="1038" y="165" as="targetPoint" />
          </mxGeometry>
        </mxCell>
        <mxCell id="gWMrlw6gH3RxY7C6o_Ru-150" value="Descripci칩n" style="ellipse;whiteSpace=wrap;html=1;align=center;fontStyle=0" vertex="1" parent="1">
          <mxGeometry x="140" y="490" width="100" height="40" as="geometry" />
        </mxCell>
        <mxCell id="gWMrlw6gH3RxY7C6o_Ru-151" value="" style="endArrow=none;html=1;rounded=0;" edge="1" parent="1" source="gWMrlw6gH3RxY7C6o_Ru-150" target="gWMrlw6gH3RxY7C6o_Ru-23">
          <mxGeometry width="50" height="50" relative="1" as="geometry">
            <mxPoint x="225" y="443" as="sourcePoint" />
            <mxPoint x="316" y="379" as="targetPoint" />
          </mxGeometry>
        </mxCell>
        <mxCell id="gWMrlw6gH3RxY7C6o_Ru-153" value="Descripci칩n" style="ellipse;whiteSpace=wrap;html=1;align=center;fontStyle=0" vertex="1" parent="1">
          <mxGeometry x="880" y="-50" width="100" height="40" as="geometry" />
        </mxCell>
        <mxCell id="gWMrlw6gH3RxY7C6o_Ru-156" value="Nombre" style="ellipse;whiteSpace=wrap;html=1;align=center;fontStyle=0" vertex="1" parent="1">
          <mxGeometry x="740" y="-50" width="100" height="40" as="geometry" />
        </mxCell>
        <mxCell id="gWMrlw6gH3RxY7C6o_Ru-158" value="ID" style="ellipse;whiteSpace=wrap;html=1;align=center;fontStyle=4" vertex="1" parent="1">
          <mxGeometry x="845" y="-90" width="30" height="30" as="geometry" />
        </mxCell>
        <mxCell id="gWMrlw6gH3RxY7C6o_Ru-160" value="" style="endArrow=none;html=1;rounded=0;" edge="1" parent="1" source="gWMrlw6gH3RxY7C6o_Ru-3" target="gWMrlw6gH3RxY7C6o_Ru-158">
          <mxGeometry width="50" height="50" relative="1" as="geometry">
            <mxPoint x="690" y="75" as="sourcePoint" />
            <mxPoint x="770" y="75" as="targetPoint" />
          </mxGeometry>
        </mxCell>
        <mxCell id="gWMrlw6gH3RxY7C6o_Ru-161" value="" style="endArrow=none;html=1;rounded=0;" edge="1" parent="1" source="gWMrlw6gH3RxY7C6o_Ru-3" target="gWMrlw6gH3RxY7C6o_Ru-156">
          <mxGeometry width="50" height="50" relative="1" as="geometry">
            <mxPoint x="870" y="30" as="sourcePoint" />
            <mxPoint x="870" y="-50" as="targetPoint" />
          </mxGeometry>
        </mxCell>
        <mxCell id="gWMrlw6gH3RxY7C6o_Ru-163" value="" style="endArrow=none;html=1;rounded=0;" edge="1" parent="1" source="gWMrlw6gH3RxY7C6o_Ru-3" target="gWMrlw6gH3RxY7C6o_Ru-153">
          <mxGeometry width="50" height="50" relative="1" as="geometry">
            <mxPoint x="837" y="30" as="sourcePoint" />
            <mxPoint x="814" y="-1" as="targetPoint" />
          </mxGeometry>
        </mxCell>
        <mxCell id="gWMrlw6gH3RxY7C6o_Ru-166" value="" style="endArrow=none;html=1;rounded=0;" edge="1" parent="1" source="gWMrlw6gH3RxY7C6o_Ru-1" target="gWMrlw6gH3RxY7C6o_Ru-165">
          <mxGeometry width="50" height="50" relative="1" as="geometry">
            <mxPoint x="408" y="20" as="sourcePoint" />
            <mxPoint x="660" y="-220" as="targetPoint" />
            <Array as="points" />
          </mxGeometry>
        </mxCell>
        <mxCell id="gWMrlw6gH3RxY7C6o_Ru-165" value="Geolocalizaci칩n" style="ellipse;whiteSpace=wrap;html=1;align=center;fontColor=#808080;" vertex="1" parent="1">
          <mxGeometry x="594" y="-295" width="116" height="40" as="geometry" />
        </mxCell>
        <mxCell id="gWMrlw6gH3RxY7C6o_Ru-167" value="" style="endArrow=none;html=1;rounded=0;" edge="1" parent="1" source="gWMrlw6gH3RxY7C6o_Ru-165" target="gWMrlw6gH3RxY7C6o_Ru-126">
          <mxGeometry width="50" height="50" relative="1" as="geometry">
            <mxPoint x="649" y="-285" as="sourcePoint" />
            <mxPoint x="770" y="-310" as="targetPoint" />
          </mxGeometry>
        </mxCell>
      </root>
    </mxGraphModel>
  </diagram>
</mxfile>
